# xmcd CD database file
#
# Track frame offsets:
#	150
#	16560
#	32225
#	48565
#	69047
#	81160
#	97005
#	118845
#	132132
#	148137
#
# Disc length: 2127 seconds
#
# Revision: 0
# Processed by: cddbd v1.5PL3 Copyright (c) Steve Scherf et al.
# Submitted via: CDex 1.40Release
#
DISCID=82084d0a
DTITLE=John Cunningham - happy-go-unlucky
DYEAR=2002
DGENRE=Pop
TTITLE0=Losing Myself Too
TTITLE1=Here It Is
TTITLE2=Way To Go
TTITLE3=Can't Get Used To This
TTITLE4=It Isn't Easy
TTITLE5=You Shine
TTITLE6=Invisible Lines
TTITLE7=Welcome To The World
TTITLE8=Take Your Time
TTITLE9=It Goes On
EXTD=YEAR: 2002 ID3G: 13
EXTT0=
EXTT1=
EXTT2=
EXTT3=
EXTT4=
EXTT5=
EXTT6=
EXTT7=
EXTT8=
EXTT9=
PLAYORDER=
